<svg xmlns="http://www.w3.org/2000/svg" viewBox="0 0 612 96" role="img" aria-labelledby="title">
  <title id="title">Currentfold</title>
  <defs>
    <path id="folded-current" d="M83 12 74 31H62c-8 0-14 6-14 17s6 17 14 17h12l9 19H53C30 84 12 68 12 48S30 12 53 12Z"/>
    <clipPath id="upper"><path d="M0 0h96v48H0z"/></clipPath>
    <clipPath id="lower"><path d="M0 48h96v48H0z"/></clipPath>
  </defs>
  <use href="#folded-current" fill="#EA7558" clip-path="url(#upper)"/>
  <use href="#folded-current" fill="#1C1917" clip-path="url(#lower)"/>
  <!-- Currentfold set in Newsreader SemiBold, optical size 48, converted to paths. -->
  <path fill="#1C1917" d="M153.28 74.38q3.04 0 5.88-.8 2.84-.81 5.8-2.66l-2.36 2 8.59-13.95h1.89l-2.88 16.26q-4.35 1.46-8.98 2.16-4.64.7-10.06.7-7.98 0-14.51-2.09-6.53-2.09-11.24-6.21-4.71-4.13-7.24-10.19-2.54-6.05-2.54-13.97 0-9.64 4.44-16.9 4.44-7.26 12.51-11.32 8.06-4.05 18.95-4.05 3.42 0 6.51.38 3.08.38 7 1.28l-3.32.83 5.95-4.36h.99l3.84 22.84-1.89.43-9.61-15.65 2.99 3.37q-3.85-2.97-7.17-4.1-3.32-1.13-6.94-1.13-4.54 0-8.27 1.46-3.72 1.46-6.4 4.53-2.68 3.07-4.13 7.92-1.46 4.84-1.46 11.64 0 7.64 1.82 13.52 1.82 5.88 5.06 9.9 3.24 4.03 7.53 6.09 4.3 2.07 9.25 2.07Zm41.43-11.46q0 2.41.75 3.9.74 1.49 2.33 2.18 1.59.68 4.16.68 2.63 0 5.02-.81 2.4-.81 4.04-2.06l1.02 1.45q-3.05 3.05-5.35 4.98-2.3 1.92-4.23 2.95-1.94 1.03-3.83 1.41-1.89.38-4.1.38-5.95 0-8.83-3.46-2.89-3.46-2.89-10.41V39.02l-6.32-2.5v-1.83l18.66-1.12-.43 5.03Zm15.27 15.26-.7-8.69V38.9l-5.96-2.38v-1.83l18.49-1.12-.59 5.15v31.71q.44.36 1.19.81.76.45 1.66.92.91.48 1.81.91.91.43 1.68.73v1.35l-16.63 3.03Zm52.19-44.79q2.49 0 3.75 1.41 1.27 1.41 1.27 3.63 0 2.86-1.82 4.61-1.83 1.75-4.41 1.75-1.58 0-2.77-.34-1.19-.35-2.35-.69-1.17-.33-2.69-.33-1.19 0-2.29.31-1.1.32-2.12.93-1.02.61-2.01 1.52l-.47-2.06q3.13-3.3 5.48-5.4 2.34-2.09 4.16-3.26 1.82-1.17 3.33-1.63 1.51-.45 2.94-.45Zm-14.01 8.57v31.63l6.35 1.89V77h-23.89v-1.52l5.62-1.82V43.72q-.63-.69-1.42-1.3-.79-.62-1.9-1.39-1.1-.76-2.66-1.83v-1.26l16.58-5h.91Zm53.29-8.57q2.49 0 3.76 1.41 1.27 1.41 1.27 3.63 0 2.86-1.83 4.61-1.83 1.75-4.41 1.75-1.57 0-2.76-.34-1.19-.35-2.36-.69-1.16-.33-2.68-.33-1.19 0-2.29.31-1.1.32-2.12.93-1.02.61-2.01 1.52l-.47-2.06q3.13-3.3 5.47-5.4 2.35-2.09 4.17-3.26 1.82-1.17 3.33-1.63 1.5-.45 2.93-.45Zm-14 8.57v31.63l6.35 1.89V77H269.9v-1.52l5.62-1.82V43.72q-.62-.69-1.42-1.3-.79-.62-1.89-1.39-1.11-.76-2.66-1.83v-1.26l16.57-5h.92Zm42.3-8.86q5.16 0 8.84 2.12 3.67 2.12 5.79 6.15 2.12 4.02 2.56 9.75h-29.29l.02-3.37 23.48-.53-5.46 2.16q-.28-4.53-1.13-7.37-.85-2.85-2.33-4.2-1.48-1.36-3.71-1.36-2.63 0-4.58 1.56-1.94 1.55-3 4.93-1.06 3.38-1.06 8.89 0 6.12 1.78 10.1 1.78 3.97 5.12 5.9 3.34 1.94 8.03 1.94 2.17 0 4.14-.5 1.96-.5 3.82-1.58 1.85-1.07 3.59-2.78l1.17 1.26q-2.75 4.17-5.6 6.81-2.84 2.63-6 3.87-3.16 1.24-6.87 1.24-6.09 0-10.74-2.66-4.65-2.67-7.27-7.55-2.61-4.88-2.61-11.53 0-6.29 2.47-11.58 2.48-5.28 7.24-8.48 4.77-3.19 11.6-3.19Zm39.6 9.39v31.28l5.33 1.71V77H351.8v-1.52l5.62-1.82V43.72q-.82-.92-2.2-2-1.38-1.08-3.78-2.52v-1.26l16.1-5h.92Zm10.71 32.99 5.34-1.71V48.78q0-2.44-.84-4.02-.84-1.58-2.53-2.36-1.69-.77-4.29-.77-2.82 0-5.35.84-2.52.84-4.3 2.06l-.99-1.25q3.13-3.17 5.54-5.16 2.4-1.99 4.42-3.05 2.02-1.07 4-1.47 1.97-.39 4.25-.39 6.1 0 9.06 3.52 2.95 3.53 2.95 10.77v26.16l5.65 1.82V77h-22.91Zm42.96-10.91q0 2.89 1.86 4.38 1.87 1.49 5.34 1.49 1.86 0 3.98-.34 2.12-.34 4.81-1.12v2.08q-3.82 2.68-6.59 4.2-2.78 1.53-4.98 2.17-2.2.63-4.35.63-3.51 0-6.21-1.29-2.69-1.29-4.23-3.99-1.53-2.7-1.53-6.91V41.72l-6.1-4.51v-1.18q.81-.53 2.18-1.37 1.37-.83 3.1-1.88 1.72-1.06 3.64-2.24 1.91-1.18 3.86-2.38 1.95-1.2 3.72-2.31h1.5v9.62ZM418.41 40v-5.81h19.11l-.84 5.81Zm31.06 0-1.66 1.17-7.95-2.71V36.9l8.58-3.31 4.78.6h19.74l-.87 5.81Zm9.96 33.59 6.53 1.89V77h-24.17v-1.52l5.62-1.82V35.1q0-5.75 1.89-10.18 1.88-4.43 5.25-7.45 3.37-3.02 7.87-4.58 4.49-1.56 9.71-1.56 2.87 0 4.94.44 2.06.44 3.39 1.22 1.33.79 1.96 1.84.63 1.05.63 2.29 0 2.03-1.42 3.45-1.42 1.42-3.34 1.42-1.01 0-2.25-1-1.23-.99-2.69-2.31-1.46-1.31-3.18-2.31-1.73-.99-3.72-.99-2.1 0-3.68.98-1.58.99-2.46 3.1-.88 2.11-.88 5.49Zm36.86 1.18q3.05 0 5.16-1.88 2.11-1.87 3.19-5.84 1.09-3.98 1.09-10.26 0-6.71-1.06-11.23-1.06-4.52-3.19-6.82-2.14-2.3-5.38-2.3-3.05 0-5.16 1.87-2.1 1.87-3.19 5.84-1.09 3.97-1.09 10.25 0 6.69 1.05 11.23 1.05 4.53 3.2 6.83 2.14 2.31 5.38 2.31Zm-.44 3.32q-6.46 0-11.39-2.82-4.93-2.82-7.69-7.83-2.77-5.01-2.77-11.55 0-6.69 2.94-11.83 2.94-5.14 8.04-8.05 5.09-2.91 11.56-2.91 6.55 0 11.46 2.81 4.91 2.82 7.65 7.82 2.74 5 2.74 11.57 0 6.69-2.97 11.83-2.97 5.15-8.07 8.06-5.09 2.9-11.5 2.9Zm44.36-4.43 5.65 1.82V77h-23.2v-1.52l5.62-1.82V22.03q-.62-.6-1.61-1.34-.99-.73-2.37-1.62-1.37-.88-3.13-1.9v-1.32l18.43-4.52h.91l-.3 8.72Zm41.38-28.68q0-3.77-2.22-6.14-2.22-2.37-6.11-2.37-3.3 0-5.65 1.91-2.36 1.91-3.6 5.85-1.24 3.94-1.24 10.06 0 5.84 1.28 9.57 1.29 3.72 3.76 5.49 2.48 1.76 6.06 1.76 2.77 0 5.29-.89 2.52-.9 4.77-2.94l.21 2.32q-2.75 2.56-4.9 4.22-2.14 1.66-3.95 2.59-1.8.94-3.47 1.31-1.66.37-3.39.37-5.72 0-9.8-2.56-4.08-2.57-6.25-7.16-2.16-4.6-2.16-10.66 0-5.91 1.88-10.49 1.87-4.58 5.2-7.72 3.33-3.15 7.71-4.77 4.39-1.63 9.41-1.63 2.57 0 5.06.37 2.5.36 5 .77 2.5.77 5.02 2.03l-7.91 1.06V21.71q-.59-.57-1.67-1.35-1.08-.79-2.42-1.65-1.34-.86-2.72-1.65v-1.29l18.34-4.44h.87l-.48 8.47v50.63q.44.36 1.19.81.76.45 1.67.92.9.48 1.8.91.91.43 1.68.73v1.35l-16.55 3.12h-.94l-.77-7.23Z"/>
</svg>
